<?xml version="1.0" encoding="iso-8859-1"?>
<!-- Generator: Adobe Illustrator 19.0.0, SVG Export Plug-In . SVG Version: 6.00 Build 0)  -->
<svg version="1.1" id="Capa_1" xmlns="http://www.w3.org/2000/svg" xmlns:xlink="http://www.w3.org/1999/xlink" x="0px" y="0px"
	 viewBox="0 0 446.942 446.942" style="enable-background:new 0 0 446.942 446.942;" xml:space="preserve">
<g>
	<path d="M87.94,319.471c-2.109,0-4.17,0.859-5.66,2.34c-1.489,1.49-2.34,3.56-2.34,5.66c0,2.109,0.851,4.17,2.34,5.66
		c1.49,1.489,3.561,2.34,5.66,2.34c2.101,0,4.17-0.851,5.66-2.34c1.49-1.49,2.34-3.561,2.34-5.66c0-2.101-0.85-4.17-2.34-5.66
		C92.11,320.33,90.051,319.471,87.94,319.471z"/>
	<path d="M343.94,319.471c-2.109,0-4.17,0.859-5.66,2.34c-1.479,1.49-2.34,3.55-2.34,5.66c0,2.109,0.86,4.17,2.34,5.66
		c1.49,1.489,3.561,2.34,5.66,2.34c2.101,0,4.17-0.851,5.66-2.34c1.49-1.49,2.34-3.551,2.34-5.66c0-2.101-0.85-4.17-2.34-5.66
		C348.11,320.33,346.051,319.471,343.94,319.471z"/>
	<path d="M440.416,254.608l-32-6c-2.354-0.438-4.779,0.198-6.613,1.736c-1.834,1.537-2.884,3.82-2.861,6.213
		c0.064,6.637-1.244,14.234-2.815,16.979c-0.94-0.506-2.698-1.71-5.349-4.537c-1.942-2.072-4.839-2.96-7.61-2.329
		c-2.771,0.63-4.999,2.683-5.854,5.392l-2.71,8.583c-2.649-1.74-5.451-3.263-8.385-4.541
		C349.861,136.562,313.474,70.332,311.92,67.56c-1.709-3.051-5.202-4.634-8.624-3.918c-0.469,0.099-46.743,10.403-37.451,58.574
		c0.106,0.552,0.271,1.093,0.491,1.61c0.328,0.773,31.792,75.402,44.99,147.645H186.662l73.61-65.784
		c1.598-1.428,2.557-3.438,2.659-5.579c0.104-2.141-0.656-4.233-2.109-5.81c-0.684-0.74-6.96-7.351-16.76-11.17
		c-13.733-5.351-27.809-2.478-39.636,8.092l-89.797,80.251h-2.689v-80c0-10.228-12.181-28.965-17.418-36.547
		c-1.493-2.162-3.954-3.453-6.582-3.453s-5.089,1.291-6.582,3.453c-5.237,7.582-17.418,26.319-17.418,36.547v85.414
		c-7.294,3.474-13.719,8.482-18.864,14.601c-1.316-1.527-2.723-3.174-4.184-4.904c-6.896-12.131,5.658-32.597,5.785-32.798
		c1.855-2.897,1.65-6.657-0.51-9.336l-25-31c-1.679-2.081-4.281-3.187-6.95-2.945c-2.663,0.242-5.029,1.798-6.307,4.147
		c-0.589,1.085-14.321,26.813-4.205,48.236c3.902,8.263,15.346,22.612,24.205,33.137c0.551,0.842,1.154,1.67,1.813,2.482
		c0.453,0.56,0.966,1.042,1.522,1.445c1.98,2.313,3.716,4.305,5.064,5.839c-2.812,6.672-4.369,13.997-4.369,21.68
		c0,30.879,25.121,56,56,56h256c30.879,0,56-25.121,56-56c0-3.553-0.347-7.025-0.983-10.396c4.406-2.65,11.712-7.33,19.305-13.429
		c16.751-13.455,26.361-26.858,28.564-39.836C447.559,259.507,444.706,255.412,440.416,254.608z M24.429,265.888
		c-2.83-3.903-5.085-7.356-6.254-9.833c-3.257-6.896-2.423-15.117-0.72-21.722l12.873,15.962
		C28.419,254.065,25.993,259.595,24.429,265.888z M281.408,118.391c-2.368-13.315,0.864-23.795,9.614-31.159
		c3.359-2.828,6.981-4.745,9.886-5.985c8.802,18.487,35.121,80.893,48.671,190.508c-1.855-0.187-3.735-0.284-5.638-0.284h-16.359
		C314.974,199.837,285.162,127.348,281.408,118.391z M215.089,203.15c7.287-6.513,14.725-8.239,22.74-5.274
		c1.707,0.632,3.278,1.418,4.67,2.237l-79.847,71.358h-24.011L215.089,203.15z M79.941,191.48c0.065-2.445,3.393-9.417,8.002-17.182
		c4.606,7.759,7.933,14.728,7.998,17.173v80h-8c-2.717,0-5.386,0.205-8,0.581V191.48z M343.941,367.471h-256
		c-22.056,0-40-17.944-40-40s17.944-40,40-40h256c22.056,0,40,17.944,40,40S365.997,367.471,343.941,367.471z M393.594,301.623
		c-1.692-3.238-3.69-6.29-5.958-9.119l1.458-4.617c4.511,2.294,8.819,2.63,12.889,0.994c6.173-2.483,10.195-9.163,11.956-19.854
		c0.17-1.028,0.311-2.044,0.428-3.025l14.087,2.642C421.753,281.801,404.817,294.556,393.594,301.623z"/>
	<path d="M231.941,319.471h-96c-4.418,0-8,3.582-8,8s3.582,8,8,8h96c4.418,0,8-3.582,8-8S236.359,319.471,231.941,319.471z"/>
	<path d="M295.941,319.471h-32c-4.418,0-8,3.582-8,8s3.582,8,8,8h32c4.418,0,8-3.582,8-8S300.359,319.471,295.941,319.471z"/>
	<path d="M305.27,110.264c-1.771-4.048-6.489-5.894-10.536-4.122c-4.048,1.771-5.894,6.488-4.122,10.536
		c6.707,15.331,13.581,38.798,13.649,39.033c1.02,3.493,4.212,5.762,7.676,5.762c0.742,0,1.496-0.104,2.244-0.322
		c4.241-1.237,6.677-5.679,5.439-9.92C319.33,150.231,312.395,126.549,305.27,110.264z"/>
</g>
<g>
</g>
<g>
</g>
<g>
</g>
<g>
</g>
<g>
</g>
<g>
</g>
<g>
</g>
<g>
</g>
<g>
</g>
<g>
</g>
<g>
</g>
<g>
</g>
<g>
</g>
<g>
</g>
<g>
</g>
</svg>
